<svg xmlns="http://www.w3.org/2000/svg" viewBox="0 0 52 60">
  <defs>
    <linearGradient id="f" x1="0" y1="0" x2="1" y2="1">
      <stop offset="0" stop-color="#FF4D8D"/><stop offset=".4" stop-color="#E0218A"/>
      <stop offset=".75" stop-color="#A020F0"/><stop offset="1" stop-color="#7B2FF7"/>
    </linearGradient>
  </defs>
  <path d="M26 4 C 20 18 9 23 9 36 C 9 48 16 56 26 58 C 36 56 43 48 43 36 C 43 27 37 21 33 15 C 32 22 28 21 29 12 C 29 9 28 6 26 4 Z" fill="url(#f)"/>
  <path d="M26 28 C 22 34 19 38 19 45 C 19 51 23 56 26 58 C 31 55 33 50 32 45 C 31 40 29 38 28 34 C 27 38 24 37 26 28 Z" fill="#fff" opacity=".4"/>
</svg>
