<svg xmlns="http://www.w3.org/2000/svg" viewBox="0 0 76 100">
  <path fill-rule="evenodd" fill="#BB080B" d="M47 0C48.5 12 54 20 60.5 28.5 68 38.5 75 48.5 75 64 75 86 60.5 100 41 100 21.5 100 5 86.5 5 65 5 54 9 45.5 12.5 38.5 15.5 32.5 18 26.5 18 19.5 22.5 23.5 25.5 28.5 26.5 34.5 26 26.5 28 18.5 32 12.5 36 6.5 42.5 3.5 47 0ZM35 34C35.6 43.5 39 49 43.2 54.2 45.2 56.7 46.6 54.6 47.4 51.6 52.6 57.6 56.5 63.2 56.5 71.4 56.5 81.4 49.6 88 40.6 88 31.6 88 24.5 81.4 24.5 71.4 24.5 63.8 27.5 58.4 30.2 53.2 33 47.8 35 41.5 35 34Z"/>
</svg>
