<svg xmlns="http://www.w3.org/2000/svg" viewBox="0 0 470 120">
  <path fill-rule="evenodd" fill="#BB080B" d="M62 10C63.5 22 69 30 75.5 38.5 83 48.5 90 58.5 90 74 90 96 75.5 110 56 110 36.5 110 20 96.5 20 75 20 64 24 55.5 27.5 48.5 30.5 42.5 33 36.5 33 29.5 37.5 33.5 40.5 38.5 41.5 44.5 41 36.5 43 28.5 47 22.5 51 16.5 57.5 13.5 62 10ZM50 44C50.6 53.5 54 59 58.2 64.2 60.2 66.7 61.6 64.6 62.4 61.6 67.6 67.6 71.5 73.2 71.5 81.4 71.5 91.4 64.6 98 55.6 98 46.6 98 39.5 91.4 39.5 81.4 39.5 73.8 42.5 68.4 45.2 63.2 48 57.8 50 51.5 50 44Z"/>
  <text x="112" y="88" font-family="Arial Black, Arial, sans-serif" font-weight="900" font-size="72" fill="#111111" letter-spacing="-1">Ad<tspan fill="#BB080B">Fyrr</tspan></text>
</svg>
